Coordinates
version=1
nRows=29
nColumns=34
inDegrees=no

Units are S.I. units (second, meters, Newtons, ...)
If the header above contains a line with 'inDegrees', this indicates whether rotational values are in degrees (yes) or radians (no).

endheader
time	pelvis_tilt	pelvis_list	pelvis_rotation	pelvis_tx	pelvis_ty	pelvis_tz	hip_flexion_r	hip_adduction_r	hip_rotation_r	knee_angle_r	ankle_angle_r	subtalar_angle_r	mtp_angle_r	hip_flexion_l	hip_adduction_l	hip_rotation_l	knee_angle_l	ankle_angle_l	subtalar_angle_l	mtp_angle_l	lumbar_extension	lumbar_bending	lumbar_rotation	arm_flex_r	arm_add_r	arm_rot_r	elbow_flex_r	pro_sup_r	arm_flex_l	arm_add_l	arm_rot_l	elbow_flex_l	pro_sup_l
0.9	0.174672	0.0075023	-0.0290494	0.96203	1.05244	-0.216687	0.34603	-0.129106	-0.13823	1.11608	-0.0847638	-0.259857	0	-0.181852	0.0355733	-0.122056	0.242692	0.327647	0.199972	0	-0.429566	-0.00184242	-0.0355828	-0.0553286	-0.201889	-0.179882	0.658904	1.75441	0.180834	-0.241445	0.0433795	0.954947	1.6312
0.91	0.174029	0.00325232	-0.0283411	0.97433	1.05252	-0.216551	0.355719	-0.119552	-0.147819	1.06918	-0.0576009	-0.217343	0	-0.203245	0.0322789	-0.121768	0.226494	0.328572	0.197839	0	-0.430352	0.00575787	-0.0381245	-0.0575808	-0.203051	-0.184662	0.656628	1.75111	0.191614	-0.244294	0.0473739	0.976041	1.62443
0.92	0.173211	0.00152349	-0.0276032	0.986893	1.05223	-0.216367	0.364171	-0.112724	-0.156287	1.01949	-0.0346577	-0.177955	0	-0.225075	0.0317526	-0.120655	0.20937	0.328502	0.194346	0	-0.430264	0.0107099	-0.041533	-0.0604594	-0.203782	-0.189146	0.654889	1.74767	0.200949	-0.248227	0.0522312	0.998363	1.61654
0.93	0.172433	-0.0021741	-0.0274102	0.999252	1.05196	-0.216081	0.368192	-0.102827	-0.16526	0.96128	-0.0148817	-0.140283	0	-0.246735	0.0291604	-0.120523	0.192358	0.327497	0.190103	0	-0.431064	0.0176097	-0.0436362	-0.0621338	-0.205034	-0.192619	0.652892	1.74443	0.210109	-0.252062	0.0573191	1.02082	1.60796
0.94	0.171212	-0.00320071	-0.0271795	1.01189	1.05129	-0.215734	0.371481	-0.0959383	-0.172749	0.901071	0.00097223	-0.108348	0	-0.268368	0.0293456	-0.119863	0.174776	0.325677	0.185314	0	-0.430663	0.0216664	-0.0465726	-0.0644991	-0.205713	-0.195959	0.651144	1.74201	0.217671	-0.256911	0.0630606	1.0444	1.5995
0.95	0.169636	-0.00605015	-0.0276464	1.02435	1.05058	-0.215258	0.370359	-0.08568	-0.179271	0.831791	0.0136519	-0.0807049	0	-0.28911	0.0275234	-0.121375	0.157973	0.323583	0.181583	0	-0.430668	0.0274282	-0.0480639	-0.0657635	-0.206751	-0.198644	0.648943	1.74062	0.224855	-0.261462	0.0684764	1.06757	1.59363
0.96	0.167849	-0.00724979	-0.0281787	1.03702	1.04958	-0.21472	0.367446	-0.0773642	-0.184523	0.759387	0.0242039	-0.0573286	0	-0.309931	0.0274128	-0.122542	0.14088	0.320671	0.177355	0	-0.429985	0.0313999	-0.0499446	-0.0674123	-0.207369	-0.201394	0.647	1.73983	0.230645	-0.266423	0.0737604	1.09142	1.58781
0.97	0.165718	-0.00787259	-0.0289455	1.04982	1.04834	-0.214096	0.362097	-0.0694444	-0.188468	0.682362	0.0329118	-0.0376775	0	-0.330426	0.027894	-0.123541	0.123902	0.317033	0.172407	0	-0.428796	0.0346578	-0.0517002	-0.0690732	-0.207751	-0.204209	0.645267	1.73938	0.235346	-0.27135	0.0784528	1.11536	1.5826
0.98	0.163368	-0.00806364	-0.0297896	1.06276	1.0469	-0.213393	0.354127	-0.061896	-0.191343	0.600933	0.040425	-0.02061	0	-0.350644	0.0287479	-0.124334	0.107266	0.312792	0.166964	0	-0.427202	0.0373963	-0.0534226	-0.070793	-0.207896	-0.207177	0.643881	1.73889	0.239002	-0.276096	0.0823691	1.13907	1.57838
0.99	0.161362	-0.00802018	-0.0303412	1.07588	1.04532	-0.212655	0.342597	-0.0547594	-0.193887	0.51509	0.0476782	-0.00417685	0	-0.372818	0.0303873	-0.114987	0.0878156	0.303111	0.145584	0	-0.425759	0.0399778	-0.0553341	-0.0726248	-0.207878	-0.210213	0.643134	1.73668	0.241673	-0.280663	0.0859879	1.16415	1.56361
1	0.158811	-0.00783878	-0.0305301	1.08917	1.04349	-0.211863	0.328523	-0.0475663	-0.195032	0.425292	0.0541819	0.0104929	0	-0.391964	0.0308986	-0.118342	0.0735332	0.299726	0.145087	0	-0.423446	0.0424897	-0.0574451	-0.0746357	-0.207628	-0.21356	0.642495	1.73558	0.243319	-0.284805	0.0884029	1.18594	1.56597
1.01	0.156873	-0.00758746	-0.0298011	1.10269	1.04154	-0.211099	0.310239	-0.0405499	-0.194977	0.332006	0.0600251	0.0242487	0	-0.411827	0.0312079	-0.119363	0.0595295	0.295227	0.142142	0	-0.421422	0.0452535	-0.0601318	-0.0769238	-0.207268	-0.217073	0.642294	1.73382	0.244029	-0.288654	0.0905117	1.20725	1.56776
1.02	0.15521	-0.00656323	-0.028056	1.11644	1.03937	-0.210388	0.289499	-0.0346775	-0.192191	0.239107	0.0646738	0.0353262	0	-0.431591	0.0318481	-0.118141	0.0466461	0.290266	0.137746	0	-0.419164	0.0475902	-0.0636456	-0.0797166	-0.206697	-0.220886	0.642459	1.73172	0.243804	-0.292348	0.0926193	1.22794	1.56922
1.03	0.153605	-0.00420458	-0.0254591	1.1304	1.03693	-0.209735	0.269555	-0.0312461	-0.185927	0.154077	0.0691207	0.0438313	0	-0.450441	0.0332757	-0.114924	0.035918	0.285513	0.132958	0	-0.41645	0.048878	-0.0679433	-0.0830843	-0.205864	-0.225099	0.642981	1.7296	0.242813	-0.295946	0.0949136	1.24794	1.57042
1.04	0.151904	-0.000819266	-0.0224198	1.14445	1.03427	-0.209115	0.253737	-0.0305613	-0.176066	0.0849422	0.0751723	0.0514482	0	-0.467497	0.0351628	-0.110329	0.028534	0.281702	0.128831	0	-0.413465	0.0493326	-0.0724528	-0.0867275	-0.204893	-0.229676	0.643812	1.72762	0.241461	-0.299285	0.0974087	1.26698	1.5714
1.05	0.150177	0.00256649	-0.0194264	1.15842	1.0315	-0.208473	0.243887	-0.0317261	-0.162726	0.037204	0.0836414	0.0594146	0	-0.482133	0.0365404	-0.105379	0.0256359	0.279524	0.12652	0	-0.410793	0.0498913	-0.0763047	-0.0901134	-0.20402	-0.234432	0.64485	1.72573	0.240225	-0.302068	0.0999862	1.28467	1.57223
1.06	0.148614	0.00477291	-0.0168897	1.1722	1.02871	-0.207745	0.240524	-0.0332037	-0.146622	0.0133289	0.09369	0.0677124	0	-0.494094	0.0363315	-0.10117	0.0279621	0.279474	0.12709	0	-0.409017	0.0516593	-0.078708	-0.0927705	-0.203484	-0.239065	0.645941	1.72382	0.239372	-0.304016	0.102464	1.30067	1.57309
1.07	0.147421	0.00491335	-0.0150703	1.1858	1.02601	-0.206868	0.243292	-0.0333761	-0.129376	0.0129594	0.103234	0.0754615	0	-0.503472	0.0337559	-0.0986983	0.0357837	0.281756	0.131436	0	-0.408459	0.0554535	-0.0791901	-0.0944627	-0.203454	-0.243202	0.646871	1.72186	0.238803	-0.304962	0.104625	1.31478	1.57433
1.08	0.146766	0.00254909	-0.0140039	1.1993	1.02341	-0.205806	0.251154	-0.030995	-0.11352	0.0330921	0.109743	0.0816599	0	-0.510634	0.0284306	-0.0987331	0.0489318	0.286245	0.140178	0	-0.409103	0.0616687	-0.077711	-0.0952307	-0.204019	-0.246472	0.647405	1.71996	0.238056	-0.304858	0.106239	1.32692	1.57638
1.09	0.146838	-0.00237856	-0.0134835	1.21286	1.02095	-0.204564	0.262324	-0.0255202	-0.102012	0.0684205	0.111057	0.0857666	0	-0.516166	0.0202777	-0.1018	0.0669552	0.292457	0.153587	0	-0.410783	0.0703828	-0.0746332	-0.095282	-0.205207	-0.2486	0.647342	1.71832	0.236475	-0.303725	0.107089	1.3371	1.57979
1.1	0.147496	-0.0100262	-0.0130851	1.2266	1.01861	-0.20317	0.275104	-0.0170332	-0.0993787	0.112842	0.107255	0.0914244	0	-0.517042	0.00750684	-0.128641	0.0958147	0.30916	0.203919	0	-0.412987	0.081843	-0.0705068	-0.0948305	-0.207056	-0.249156	0.646809	1.71429	0.233405	-0.301526	0.106739	1.34425	1.59162
1.11	0.149786	-0.0196972	-0.0124202	1.24066	1.01659	-0.201735	0.284947	-0.00610184	-0.0982581	0.157561	0.0945415	0.0866007	0	-0.522652	-0.00573699	-0.130067	0.119197	0.311869	0.212063	0	-0.416553	0.0955338	-0.0660487	-0.0939672	-0.209468	-0.248942	0.645186	1.71416	0.22855	-0.298407	0.105729	1.35069	1.59642
1.12	0.152696	-0.0322052	-0.0110825	1.25503	1.01487	-0.200258	0.291875	0.00778559	-0.100401	0.19895	0.0759663	0.0764826	0	-0.523599	-0.0242106	-0.153379	0.15211	0.321274	0.251605	0	-0.420367	0.112371	-0.0614757	-0.0926552	-0.212471	-0.247605	0.642714	1.71437	0.221685	-0.294108	0.103179	1.35311	1.61353
1.13	0.156357	-0.0462372	-0.00916169	1.26968	1.01357	-0.198805	0.295302	0.0232866	-0.102961	0.235439	0.0546247	0.0618369	0	-0.523599	-0.043837	-0.168649	0.185096	0.322924	0.274852	0	-0.424558	0.131045	-0.057106	-0.0908936	-0.215804	-0.24579	0.639451	1.71538	0.213039	-0.288789	0.0998016	1.35352	1.62791
1.14	0.160336	-0.0610042	-0.00687526	1.28456	1.0127	-0.19737	0.296362	0.039595	-0.105346	0.268305	0.0348211	0.0459767	0	-0.523599	-0.0640121	-0.180689	0.21976	0.318101	0.288791	0	-0.428656	0.150655	-0.0529392	-0.0888083	-0.219201	-0.244046	0.635519	1.71792	0.202829	-0.282501	0.095713	1.35161	1.63976
1.15	0.164108	-0.0753387	-0.00461725	1.29961	1.01225	-0.195924	0.296478	0.0556339	-0.106777	0.299564	0.0201137	0.0306187	0	-0.523599	-0.0835225	-0.190302	0.256861	0.306359	0.29434	0	-0.432099	0.169823	-0.0489319	-0.0866125	-0.222316	-0.242979	0.63121	1.72209	0.191325	-0.275429	0.0911713	1.34737	1.64835
1.16	0.16722	-0.0880549	-0.00274942	1.31478	1.01216	-0.194442	0.296732	0.070132	-0.107693	0.330871	0.0133628	0.0179749	0	-0.523599	-0.100848	-0.195805	0.296407	0.286675	0.288894	0	-0.434416	0.187154	-0.045105	-0.0845428	-0.224853	-0.242862	0.627248	1.72475	0.178782	-0.267866	0.0865688	1.3413	1.65094
1.17	0.168701	-0.0988257	-0.00148702	1.32996	1.0123	-0.192854	0.297831	0.0832889	-0.106243	0.361696	0.0134224	0.0046261	0	-0.514145	-0.11708	-0.202929	0.342	0.26134	0.280807	0	-0.434696	0.202139	-0.0414038	-0.0827219	-0.22656	-0.244218	0.623681	1.72823	0.165382	-0.260072	0.0818916	1.33275	1.65264
1.18	0.168696	-0.107929	-0.00075165	1.34511	1.01264	-0.191125	0.29891	0.0955077	-0.102813	0.390768	0.0190428	-0.00976483	0	-0.498436	-0.133061	-0.211646	0.39382	0.230514	0.26963	0	-0.433167	0.214965	-0.0376977	-0.0812934	-0.227402	-0.247152	0.620915	1.73276	0.151327	-0.252285	0.0773321	1.32202	1.65361
